<?xml version="1.0" encoding="utf-8"?>
<!-- Generator: Adobe Illustrator 18.0.0, SVG Export Plug-In . SVG Version: 6.00 Build 0)  -->
<!DOCTYPE svg PUBLIC "-//W3C//DTD SVG 1.1//EN" "http://www.w3.org/Graphics/SVG/1.1/DTD/svg11.dtd">
<svg version="1.1" id="Layer_1" xmlns="http://www.w3.org/2000/svg" xmlns:xlink="http://www.w3.org/1999/xlink" x="0px" y="0px"
	 viewBox="0 792 60 60" enable-background="new 0 792 60 60" xml:space="preserve">
<path fill="#414042" d="M55.9,850.8H4.5c-1.7,0-3-1.3-3-3v-51.5c0-1.7,1.3-3,3-3h51.4c1.7,0,3,1.3,3,3v51.5
	C58.9,849.4,57.5,850.8,55.9,850.8z"/>
<path fill="#939598" d="M56.3,852H3.6c-2,0-3.6-1.6-3.6-3.6v-52.8c0-2,1.6-3.6,3.6-3.6h52.8c2,0,3.6,1.6,3.6,3.6v52.9
	C59.9,850.4,58.3,852,56.3,852z M4.9,794.5c-1.3,0-2.4,1.1-2.4,2.4v50.2c0,1.3,1.1,2.4,2.4,2.4H55c1.3,0,2.4-1.1,2.4-2.4v-50.2
	c0-1.3-1.1-2.4-2.4-2.4H4.9z"/>
<path fill="#414042" d="M12.3,800.7c-1.9,0-3.4,1.5-3.4,3.4v35.8c0,1.9,1.5,3.4,3.4,3.4H48c1.9,0,3.4-1.5,3.4-3.4v-35.8
	c0-1.9-1.5-3.4-3.4-3.4C48,800.7,12.3,800.7,12.3,800.7z"/>
<path fill="#F1F2F2" d="M48.2,844.5H11.7c-2.3,0-4.2-1.9-4.2-4.2v-36.6c0-2.3,1.9-4.2,4.2-4.2h36.5c2.3,0,4.2,1.9,4.2,4.2v36.6
	C52.4,842.6,50.5,844.5,48.2,844.5z M13.2,802c-1.7,0-3.2,1.4-3.2,3.2v33.7c0,1.7,1.4,3.2,3.2,3.2h33.6c1.7,0,3.2-1.4,3.2-3.2v-33.7
	c0-1.7-1.4-3.2-3.2-3.2H13.2z"/>
<g>
	<g>
		<path fill="#FFFFFF" d="M17.9,840.1c-1.4,0-2.6-1.2-2.6-2.6V814c0-0.2,0.1-0.3,0.2-0.4l10.2-10.1c0.1-0.1,0.3-0.2,0.4-0.2h16
			c1.4,0,2.6,1.2,2.6,2.6v31.6c0,1.4-1.2,2.6-2.6,2.6H17.9z"/>
		<path fill="#404041" d="M41.9,803.9c1.1,0,2,0.9,2,2v31.6c0,1.1-0.9,2-2,2H17.9c-1.1,0-2-0.9-2-2V814l10.2-10.1H41.9 M41.9,802.7
			H26c-0.3,0-0.6,0.1-0.9,0.4L15,813.2c-0.2,0.2-0.4,0.6-0.4,0.9v23.5c0,1.8,1.5,3.3,3.3,3.3h24.1c1.8,0,3.3-1.5,3.3-3.3v-31.7
			C45.2,804.1,43.7,802.7,41.9,802.7L41.9,802.7z"/>
	</g>
	<g>
		<path fill="#FFFFFF" d="M16,814.5c-0.3,0-0.5-0.2-0.6-0.4c-0.1-0.2,0-0.5,0.1-0.7l10-10c0.1-0.1,0.3-0.2,0.4-0.2s0.2,0,0.2,0
			c0.2,0.1,0.4,0.3,0.4,0.6v10c0,0.3-0.3,0.6-0.6,0.6L16,814.5L16,814.5z"/>
		<path fill="#404041" d="M25.9,803.9v10H16L25.9,803.9 M25.9,802.7c-0.3,0-0.6,0.1-0.9,0.4l-10,10c-0.4,0.4-0.5,0.9-0.3,1.4
			s0.6,0.8,1.2,0.8h10c0.7,0,1.3-0.6,1.3-1.3v-10c0-0.5-0.3-1-0.8-1.2C26.2,802.7,26.1,802.7,25.9,802.7L25.9,802.7z"/>
	</g>
	<g>
		<path fill="#404041" d="M35.4,820.6h-17c-0.3,0-0.5-0.2-0.5-0.5s0.2-0.5,0.5-0.5h17c0.3,0,0.5,0.2,0.5,0.5S35.7,820.6,35.4,820.6z
			"/>
	</g>
	<path fill="#404041" d="M35.5,824.8H18.5c-0.3,0-0.5-0.2-0.5-0.5s0.2-0.5,0.5-0.5h17.1c0.3,0,0.5,0.2,0.5,0.5
		S35.8,824.8,35.5,824.8z"/>
	<path fill="#404041" d="M40.7,829H18.5c-0.3,0-0.5-0.2-0.5-0.5s0.2-0.5,0.5-0.5h22.3c0.3,0,0.5,0.2,0.5,0.5S41,829,40.7,829z"/>
	<path fill="#404041" d="M40.7,833H18.5c-0.3,0-0.5-0.2-0.5-0.5s0.2-0.5,0.5-0.5h22.3c0.3,0,0.5,0.2,0.5,0.5S41,833,40.7,833z"/>
</g>
<g>
	<g>
		<path fill="#F26722" d="M38.4,829.6l-5.3,2.5c-0.6,0.3-1.4-0.1-1.4-0.8l-0.5-5.9L46.4,799c0.6-1,1.8-1.3,2.7-0.7l3.8,2.2
			c1,0.6,1.3,1.8,0.7,2.7L38.4,829.6z"/>
		<path fill="#404041" d="M32.7,832.7c-0.8,0-1.5-0.6-1.5-1.4l-0.5-5.9c0-0.1,0-0.2,0.1-0.3L46,798.8c0.5-0.8,1.3-1.3,2.1-1.3
			c0.5,0,0.9,0.1,1.3,0.4l3.8,2.2c0.6,0.4,1,0.9,1.2,1.6c0.1,0.6,0,1.3-0.3,1.8l-15.2,26.4c-0.1,0.1-0.1,0.2-0.2,0.2l-5.3,2.5
			C33.2,832.6,32.9,832.7,32.7,832.7z M31.8,825.5l0.5,5.7c0,0.4,0.4,0.5,0.7,0.4l5.2-2.4L53.2,803c0.2-0.3,0.3-0.7,0.2-1.1
			c-0.1-0.4-0.3-0.7-0.7-1l-3.8-2.2c-0.7-0.5-1.6-0.2-2,0.5L31.8,825.5z"/>
	</g>
	<path fill="#404041" d="M51.6,807.2c-0.1,0-0.2,0-0.3-0.1l-7.2-4.2c-0.2-0.1-0.3-0.4-0.2-0.7s0.4-0.3,0.7-0.2l7.2,4.2
		c0.2,0.1,0.3,0.4,0.2,0.7C52,807.1,51.8,807.2,51.6,807.2z"/>
	<path fill="#404041" d="M49.5,810.8c-0.1,0-0.2,0-0.3-0.1l-7.2-4.2c-0.2-0.1-0.3-0.4-0.2-0.7s0.4-0.3,0.7-0.2l7.2,4.2
		c0.2,0.1,0.3,0.4,0.2,0.7C49.9,810.7,49.7,810.8,49.5,810.8z"/>
	<path fill="#404041" d="M38.4,830.1c-0.1,0-0.2,0-0.2-0.1l-7.2-4.1c-0.2-0.1-0.3-0.4-0.2-0.7c0.1-0.2,0.4-0.3,0.7-0.2l7.2,4.1
		c0.2,0.1,0.3,0.4,0.2,0.7C38.8,830,38.6,830.1,38.4,830.1z"/>
</g>
</svg>
