<?xml version="1.0" encoding="utf-8"?>
<!-- Generator: Adobe Illustrator 18.0.0, SVG Export Plug-In . SVG Version: 6.00 Build 0)  -->
<!DOCTYPE svg PUBLIC "-//W3C//DTD SVG 1.1//EN" "http://www.w3.org/Graphics/SVG/1.1/DTD/svg11.dtd">
<svg version="1.1" id="Layer_1" xmlns="http://www.w3.org/2000/svg" xmlns:xlink="http://www.w3.org/1999/xlink" x="0px" y="0px"
	 viewBox="0 792 60 60" enable-background="new 0 792 60 60" xml:space="preserve">
<path fill="#231F20" d="M4.9,794.5c-1.3,0-2.4,1.1-2.4,2.4v50.2c0,1.3,1.1,2.4,2.4,2.4H55c1.3,0,2.4-1.1,2.4-2.4v-50.2
	c0-1.3-1.1-2.4-2.4-2.4H4.9z"/>
<path fill="#58595B" d="M56.3,852H3.6c-2,0-3.6-1.6-3.6-3.6v-52.8c0-2,1.6-3.6,3.6-3.6h52.8c2,0,3.6,1.6,3.6,3.6v52.9
	C59.9,850.4,58.3,852,56.3,852z M4.9,794.5c-1.3,0-2.4,1.1-2.4,2.4v50.2c0,1.3,1.1,2.4,2.4,2.4H55c1.3,0,2.4-1.1,2.4-2.4v-50.2
	c0-1.3-1.1-2.4-2.4-2.4H4.9z"/>
<path display="none" fill="#8B1E41" d="M571.2,689.8H45.9c-17.3,0-30.6-13.3-30.6-30.6V133.9c0-17.3,13.3-30.6,30.6-30.6h525.3
	c17.3,0,30.6,13.3,30.6,30.6v525.3C601.8,675.5,587.5,689.8,571.2,689.8z"/>
<path display="none" fill="#F26722" d="M575.3,702H36.7C16.3,702,0,685.7,0,665.3V126.7C0,106.3,16.3,90,36.7,90h539.6
	c20.4,0,36.7,16.3,36.7,36.7v539.6C612,685.7,595.7,702,575.3,702z M50,115.5c-13.3,0-24.5,11.2-24.5,24.5v512
	c0,13.3,11.2,24.5,24.5,24.5h512c13.3,0,24.5-11.2,24.5-24.5V140c0-13.3-11.2-24.5-24.5-24.5H50z"/>
<path fill="#231F20" d="M12.3,800.7c-1.9,0-3.4,1.5-3.4,3.4v35.8c0,1.9,1.5,3.4,3.4,3.4H48c1.9,0,3.4-1.5,3.4-3.4v-35.8
	c0-1.9-1.5-3.4-3.4-3.4H12.3z"/>
<path fill="#58595B" d="M48.4,844.5H11.9c-2.3,0-4.2-1.9-4.2-4.2v-36.6c0-2.3,1.9-4.2,4.2-4.2h36.5c2.3,0,4.2,1.9,4.2,4.2v36.6
	C52.6,842.6,50.7,844.5,48.4,844.5z M13.4,802c-1.7,0-3.2,1.4-3.2,3.2v33.7c0,1.7,1.4,3.2,3.2,3.2H47c1.7,0,3.2-1.4,3.2-3.2v-33.7
	c0-1.7-1.4-3.2-3.2-3.2H13.4z"/>
<path display="none" fill="#F2F2F2" d="M494.7,625.5H121.4c-23.5,0-42.8-19.4-42.8-42.8V209.3c0-23.5,19.4-42.8,42.8-42.8h373.3
	c23.5,0,42.8,19.4,42.8,42.8v373.3C537.5,606.1,518.2,625.5,494.7,625.5z M136.7,192c-17.3,0-32.6,14.3-32.6,32.6v343.7
	c0,17.3,14.3,32.6,32.6,32.6h342.7c17.3,0,32.6-14.3,32.6-32.6V224.6c0-17.3-14.3-32.6-32.6-32.6H136.7z"/>
<path fill="#231F20" d="M52.6,799.5V822l-6.8-6.8L34.1,827l-9-9l11.7-11.7l-6.8-6.8H52.6 M53.6,798.5h-1H30.1h-2.4l1.7,1.7l6.1,6.1
	l-11,11l-0.8,0.7l0.7,0.7l9,9l0.7,0.7l0.7-0.7l11-11l6.1,6.1l1.7,1.7V822v-22.5V798.5L53.6,798.5z"/>
<polyline fill="#6D6E71" points="52.6,799.5 52.6,822 45.8,815.2 34.1,827 25.2,818 36.8,806.3 30,799.5 52.6,799.5 "/>
</svg>
