<?xml version="1.0" encoding="UTF-8"?> <!-- Generator: Adobe Illustrator 18.0.0, SVG Export Plug-In . SVG Version: 6.00 Build 0) --> <svg xmlns="http://www.w3.org/2000/svg" xmlns:xlink="http://www.w3.org/1999/xlink" x="0px" y="0px" viewBox="0 0 64 64" xml:space="preserve"> <g id="Layer_1"> <g> <rect x="0.1" y="0.1" fill="#FFFFFF" width="63.8" height="63.8"></rect> <path fill="#F1F2F2" d="M63.8,0.2v63.6H0.2V0.2H63.8 M64,0H0v64h64V0L64,0z"></path> </g> <g> <line fill="none" stroke="#F1F2F2" stroke-width="0.2" stroke-miterlimit="10" x1="0" y1="10.7" x2="64" y2="10.7"></line> <line fill="none" stroke="#F1F2F2" stroke-width="0.2" stroke-miterlimit="10" x1="0" y1="21.3" x2="64" y2="21.3"></line> <line fill="none" stroke="#F1F2F2" stroke-width="0.2" stroke-miterlimit="10" x1="0" y1="32" x2="64" y2="32"></line> <line fill="none" stroke="#F1F2F2" stroke-width="0.2" stroke-miterlimit="10" x1="0" y1="42.7" x2="64" y2="42.7"></line> <line fill="none" stroke="#F1F2F2" stroke-width="0.2" stroke-miterlimit="10" x1="0" y1="53.3" x2="64" y2="53.3"></line> <line fill="none" stroke="#F1F2F2" stroke-width="0.2" stroke-miterlimit="10" x1="10.7" y1="0" x2="10.7" y2="64"></line> <line fill="none" stroke="#F1F2F2" stroke-width="0.2" stroke-miterlimit="10" x1="21.3" y1="0" x2="21.3" y2="64"></line> <line fill="none" stroke="#F1F2F2" stroke-width="0.2" stroke-miterlimit="10" x1="32" y1="0" x2="32" y2="64"></line> <line fill="none" stroke="#F1F2F2" stroke-width="0.2" stroke-miterlimit="10" x1="42.7" y1="0" x2="42.7" y2="64"></line> <line fill="none" stroke="#F1F2F2" stroke-width="0.2" stroke-miterlimit="10" x1="53.3" y1="0" x2="53.3" y2="64"></line> </g> </g> <g id="Layer_2" display="none"> <g display="inline"> <line fill="none" stroke="#E6E7E8" stroke-width="0.1" stroke-miterlimit="10" x1="1.3" y1="0" x2="1.3" y2="64"></line> <line fill="none" stroke="#E6E7E8" stroke-width="0.1" stroke-miterlimit="10" x1="2.7" y1="0" x2="2.7" y2="64"></line> <line fill="none" stroke="#E6E7E8" stroke-width="0.1" stroke-miterlimit="10" x1="4" y1="0" x2="4" y2="64"></line> <line fill="none" stroke="#E6E7E8" stroke-width="0.1" stroke-miterlimit="10" x1="5.3" y1="0" x2="5.3" y2="64"></line> <line fill="none" stroke="#E6E7E8" stroke-width="0.1" stroke-miterlimit="10" x1="6.7" y1="0" x2="6.7" y2="64"></line> <line fill="none" stroke="#E6E7E8" stroke-width="0.1" stroke-miterlimit="10" x1="8" y1="0" x2="8" y2="64"></line> <line fill="none" stroke="#E6E7E8" stroke-width="0.1" stroke-miterlimit="10" x1="9.3" y1="0" x2="9.3" y2="64"></line> <line fill="none" stroke="#E6E7E8" stroke-width="0.1" stroke-miterlimit="10" x1="12" y1="0" x2="12" y2="64"></line> <line fill="none" stroke="#E6E7E8" stroke-width="0.1" stroke-miterlimit="10" x1="13.3" y1="0" x2="13.3" y2="64"></line> <line fill="none" stroke="#E6E7E8" stroke-width="0.1" stroke-miterlimit="10" x1="14.7" y1="0" x2="14.7" y2="64"></line> <line fill="none" stroke="#E6E7E8" stroke-width="0.1" stroke-miterlimit="10" x1="16" y1="0" x2="16" y2="64"></line> <line fill="none" stroke="#E6E7E8" stroke-width="0.1" stroke-miterlimit="10" x1="17.3" y1="0" x2="17.3" y2="64"></line> <line fill="none" stroke="#E6E7E8" stroke-width="0.1" stroke-miterlimit="10" x1="18.7" y1="0" x2="18.7" y2="64"></line> <line fill="none" stroke="#E6E7E8" stroke-width="0.1" stroke-miterlimit="10" x1="20" y1="0" x2="20" y2="64"></line> <line fill="none" stroke="#E6E7E8" stroke-width="0.1" stroke-miterlimit="10" x1="22.7" y1="0" x2="22.7" y2="64"></line> <line fill="none" stroke="#E6E7E8" stroke-width="0.1" stroke-miterlimit="10" x1="24" y1="0" x2="24" y2="64"></line> <line fill="none" stroke="#E6E7E8" stroke-width="0.1" stroke-miterlimit="10" x1="25.3" y1="0" x2="25.3" y2="64"></line> <line fill="none" stroke="#E6E7E8" stroke-width="0.1" stroke-miterlimit="10" x1="26.7" y1="0" x2="26.7" y2="64"></line> <line fill="none" stroke="#E6E7E8" stroke-width="0.1" stroke-miterlimit="10" x1="28" y1="0" x2="28" y2="64"></line> <line fill="none" stroke="#E6E7E8" stroke-width="0.1" stroke-miterlimit="10" x1="29.3" y1="0" x2="29.3" y2="64"></line> <line fill="none" stroke="#E6E7E8" stroke-width="0.1" stroke-miterlimit="10" x1="30.7" y1="0" x2="30.7" y2="64"></line> <line fill="none" stroke="#E6E7E8" stroke-width="0.1" stroke-miterlimit="10" x1="54.7" y1="0" x2="54.7" y2="64"></line> <line fill="none" stroke="#E6E7E8" stroke-width="0.1" stroke-miterlimit="10" x1="56" y1="0" x2="56" y2="64"></line> <line fill="none" stroke="#E6E7E8" stroke-width="0.1" stroke-miterlimit="10" x1="57.3" y1="0" x2="57.3" y2="64"></line> <line fill="none" stroke="#E6E7E8" stroke-width="0.1" stroke-miterlimit="10" x1="58.7" y1="0" x2="58.7" y2="64"></line> <line fill="none" stroke="#E6E7E8" stroke-width="0.1" stroke-miterlimit="10" x1="60" y1="0" x2="60" y2="64"></line> <line fill="none" stroke="#E6E7E8" stroke-width="0.1" stroke-miterlimit="10" x1="61.3" y1="0" x2="61.3" y2="64"></line> <line fill="none" stroke="#E6E7E8" stroke-width="0.1" stroke-miterlimit="10" x1="62.7" y1="0" x2="62.7" y2="64"></line> <line fill="none" stroke="#E6E7E8" stroke-width="0.1" stroke-miterlimit="10" x1="33.3" y1="0" x2="33.3" y2="64"></line> <line fill="none" stroke="#E6E7E8" stroke-width="0.1" stroke-miterlimit="10" x1="34.7" y1="0" x2="34.7" y2="64"></line> <line fill="none" stroke="#E6E7E8" stroke-width="0.1" stroke-miterlimit="10" x1="36" y1="0" x2="36" y2="64"></line> <line fill="none" stroke="#E6E7E8" stroke-width="0.1" stroke-miterlimit="10" x1="37.3" y1="0" x2="37.3" y2="64"></line> <line fill="none" stroke="#E6E7E8" stroke-width="0.1" stroke-miterlimit="10" x1="38.7" y1="0" x2="38.7" y2="64"></line> <line fill="none" stroke="#E6E7E8" stroke-width="0.1" stroke-miterlimit="10" x1="40" y1="0" x2="40" y2="64"></line> <line fill="none" stroke="#E6E7E8" stroke-width="0.1" stroke-miterlimit="10" x1="41.3" y1="0" x2="41.3" y2="64"></line> <line fill="none" stroke="#E6E7E8" stroke-width="0.1" stroke-miterlimit="10" x1="44" y1="0" x2="44" y2="64"></line> <line fill="none" stroke="#E6E7E8" stroke-width="0.1" stroke-miterlimit="10" x1="45.3" y1="0" x2="45.3" y2="64"></line> <line fill="none" stroke="#E6E7E8" stroke-width="0.1" stroke-miterlimit="10" x1="46.7" y1="0" x2="46.7" y2="64"></line> <line fill="none" stroke="#E6E7E8" stroke-width="0.1" stroke-miterlimit="10" x1="48" y1="0" x2="48" y2="64"></line> <line fill="none" stroke="#E6E7E8" stroke-width="0.1" stroke-miterlimit="10" x1="49.3" y1="0" x2="49.3" y2="64"></line> <line fill="none" stroke="#E6E7E8" stroke-width="0.1" stroke-miterlimit="10" x1="50.7" y1="0" x2="50.7" y2="64"></line> <line fill="none" stroke="#E6E7E8" stroke-width="0.1" stroke-miterlimit="10" x1="52" y1="0" x2="52" y2="64"></line> <line fill="none" stroke="#E6E7E8" stroke-width="0.1" stroke-miterlimit="10" x1="64" y1="1.3" x2="0" y2="1.3"></line> <line fill="none" stroke="#E6E7E8" stroke-width="0.1" stroke-miterlimit="10" x1="64" y1="2.7" x2="0" y2="2.7"></line> <line fill="none" stroke="#E6E7E8" stroke-width="0.1" stroke-miterlimit="10" x1="64" y1="4" x2="0" y2="4"></line> <line fill="none" stroke="#E6E7E8" stroke-width="0.1" stroke-miterlimit="10" x1="64" y1="5.3" x2="0" y2="5.3"></line> <line fill="none" stroke="#E6E7E8" stroke-width="0.1" stroke-miterlimit="10" x1="64" y1="6.7" x2="0" y2="6.7"></line> <line fill="none" stroke="#E6E7E8" stroke-width="0.1" stroke-miterlimit="10" x1="64" y1="8" x2="0" y2="8"></line> <line fill="none" stroke="#E6E7E8" stroke-width="0.1" stroke-miterlimit="10" x1="64" y1="9.3" x2="0" y2="9.3"></line> <line fill="none" stroke="#E6E7E8" stroke-width="0.1" stroke-miterlimit="10" x1="64" y1="12" x2="0" y2="12"></line> <line fill="none" stroke="#E6E7E8" stroke-width="0.1" stroke-miterlimit="10" x1="64" y1="13.3" x2="0" y2="13.3"></line> <line fill="none" stroke="#E6E7E8" stroke-width="0.1" stroke-miterlimit="10" x1="64" y1="14.7" x2="0" y2="14.7"></line> <line fill="none" stroke="#E6E7E8" stroke-width="0.1" stroke-miterlimit="10" x1="64" y1="16" x2="0" y2="16"></line> <line fill="none" stroke="#E6E7E8" stroke-width="0.1" stroke-miterlimit="10" x1="64" y1="17.3" x2="0" y2="17.3"></line> <line fill="none" stroke="#E6E7E8" stroke-width="0.1" stroke-miterlimit="10" x1="64" y1="18.7" x2="0" y2="18.7"></line> <line fill="none" stroke="#E6E7E8" stroke-width="0.1" stroke-miterlimit="10" x1="64" y1="20" x2="0" y2="20"></line> <line fill="none" stroke="#E6E7E8" stroke-width="0.1" stroke-miterlimit="10" x1="64" y1="22.7" x2="0" y2="22.7"></line> <line fill="none" stroke="#E6E7E8" stroke-width="0.1" stroke-miterlimit="10" x1="64" y1="24" x2="0" y2="24"></line> <line fill="none" stroke="#E6E7E8" stroke-width="0.1" stroke-miterlimit="10" x1="64" y1="25.3" x2="0" y2="25.3"></line> <line fill="none" stroke="#E6E7E8" stroke-width="0.1" stroke-miterlimit="10" x1="64" y1="26.7" x2="0" y2="26.7"></line> <line fill="none" stroke="#E6E7E8" stroke-width="0.1" stroke-miterlimit="10" x1="64" y1="28" x2="0" y2="28"></line> <line fill="none" stroke="#E6E7E8" stroke-width="0.1" stroke-miterlimit="10" x1="64" y1="29.3" x2="0" y2="29.3"></line> <line fill="none" stroke="#E6E7E8" stroke-width="0.1" stroke-miterlimit="10" x1="64" y1="30.7" x2="0" y2="30.7"></line> <line fill="none" stroke="#E6E7E8" stroke-width="0.1" stroke-miterlimit="10" x1="64" y1="54.7" x2="0" y2="54.7"></line> <line fill="none" stroke="#E6E7E8" stroke-width="0.1" stroke-miterlimit="10" x1="64" y1="56" x2="0" y2="56"></line> <line fill="none" stroke="#E6E7E8" stroke-width="0.1" stroke-miterlimit="10" x1="64" y1="57.3" x2="0" y2="57.3"></line> <line fill="none" stroke="#E6E7E8" stroke-width="0.1" stroke-miterlimit="10" x1="64" y1="58.7" x2="0" y2="58.7"></line> <line fill="none" stroke="#E6E7E8" stroke-width="0.1" stroke-miterlimit="10" x1="64" y1="60" x2="0" y2="60"></line> <line fill="none" stroke="#E6E7E8" stroke-width="0.1" stroke-miterlimit="10" x1="64" y1="61.3" x2="0" y2="61.3"></line> <line fill="none" stroke="#E6E7E8" stroke-width="0.1" stroke-miterlimit="10" x1="64" y1="62.7" x2="0" y2="62.7"></line> <line fill="none" stroke="#E6E7E8" stroke-width="0.1" stroke-miterlimit="10" x1="64" y1="33.3" x2="0" y2="33.3"></line> <line fill="none" stroke="#E6E7E8" stroke-width="0.1" stroke-miterlimit="10" x1="64" y1="34.7" x2="0" y2="34.7"></line> <line fill="none" stroke="#E6E7E8" stroke-width="0.1" stroke-miterlimit="10" x1="64" y1="36" x2="0" y2="36"></line> <line fill="none" stroke="#E6E7E8" stroke-width="0.1" stroke-miterlimit="10" x1="64" y1="37.3" x2="0" y2="37.3"></line> <line fill="none" stroke="#E6E7E8" stroke-width="0.1" stroke-miterlimit="10" x1="64" y1="38.7" x2="0" y2="38.7"></line> <line fill="none" stroke="#E6E7E8" stroke-width="0.1" stroke-miterlimit="10" x1="64" y1="40" x2="0" y2="40"></line> <line fill="none" stroke="#E6E7E8" stroke-width="0.1" stroke-miterlimit="10" x1="64" y1="41.3" x2="0" y2="41.3"></line> <line fill="none" stroke="#E6E7E8" stroke-width="0.1" stroke-miterlimit="10" x1="64" y1="44" x2="0" y2="44"></line> <line fill="none" stroke="#E6E7E8" stroke-width="0.1" stroke-miterlimit="10" x1="64" y1="45.3" x2="0" y2="45.3"></line> <line fill="none" stroke="#E6E7E8" stroke-width="0.1" stroke-miterlimit="10" x1="64" y1="46.7" x2="0" y2="46.7"></line> <line fill="none" stroke="#E6E7E8" stroke-width="0.1" stroke-miterlimit="10" x1="64" y1="48" x2="0" y2="48"></line> <line fill="none" stroke="#E6E7E8" stroke-width="0.1" stroke-miterlimit="10" x1="64" y1="49.3" x2="0" y2="49.3"></line> <line fill="none" stroke="#E6E7E8" stroke-width="0.1" stroke-miterlimit="10" x1="64" y1="50.7" x2="0" y2="50.7"></line> <line fill="none" stroke="#E6E7E8" stroke-width="0.1" stroke-miterlimit="10" x1="64" y1="52" x2="0" y2="52"></line> </g> </g> </svg> 